<svg width="23" height="23" viewBox="0 0 23 23" fill="none" xmlns="http://www.w3.org/2000/svg">
<path d="M11.5 13.8C17.848 13.8 23 16.2073 23 19.1667V23H0V19.1667C0 16.2073 5.152 13.8 11.5 13.8ZM21.4667 19.1667C21.4667 17.0507 17.0047 15.3333 11.5 15.3333C5.99533 15.3333 1.53333 17.0507 1.53333 19.1667V21.4667H21.4667V19.1667ZM11.5 0C12.9233 0 14.2884 0.565415 15.2948 1.57186C16.3013 2.57831 16.8667 3.94334 16.8667 5.36667C16.8667 6.79 16.3013 8.15503 15.2948 9.16147C14.2884 10.1679 12.9233 10.7333 11.5 10.7333C10.0767 10.7333 8.71164 10.1679 7.70519 9.16147C6.69875 8.15503 6.13333 6.79 6.13333 5.36667C6.13333 3.94334 6.69875 2.57831 7.70519 1.57186C8.71164 0.565415 10.0767 0 11.5 0ZM11.5 1.53333C10.4833 1.53333 9.50831 1.9372 8.78942 2.65609C8.07053 3.37498 7.66667 4.35 7.66667 5.36667C7.66667 6.38333 8.07053 7.35835 8.78942 8.07724C9.50831 8.79613 10.4833 9.2 11.5 9.2C12.5167 9.2 13.4917 8.79613 14.2106 8.07724C14.9295 7.35835 15.3333 6.38333 15.3333 5.36667C15.3333 4.35 14.9295 3.37498 14.2106 2.65609C13.4917 1.9372 12.5167 1.53333 11.5 1.53333Z" fill="white"/>
</svg>
